<svg xmlns="http://www.w3.org/2000/svg" viewBox="0 0 260 72" role="img" aria-labelledby="title desc">
  <title id="title">MIDX TRADERS LTD</title>
  <desc id="desc">Company logo for MIDX TRADERS LTD</desc>
  <rect width="260" height="72" rx="10" fill="#17322d"/>
  <path d="M21 51V20h8.5l8.7 14.5L47 20h8.4v31h-7.1V31.8l-7.8 12.8h-4.6L28.1 32v19H21Z" fill="#f7f2e8"/>
  <path d="M65 51V20h7.4v31H65Zm17.1 0V20h12.2c4.9 0 8.8 1.4 11.7 4.3 3 2.8 4.5 6.5 4.5 11.2 0 4.6-1.5 8.4-4.5 11.2-2.9 2.9-6.8 4.3-11.7 4.3H82.1Zm7.4-6.3h4.4c2.8 0 5-.8 6.5-2.5 1.6-1.7 2.4-3.9 2.4-6.7 0-2.9-.8-5.1-2.4-6.7-1.5-1.7-3.7-2.5-6.5-2.5h-4.4v18.4Zm26.1 6.3 11.2-16.1L116.4 20h8.4l6.5 9.8 6.4-9.8h8.1l-10.4 14.8L146.7 51h-8.5l-7-10.5-7.1 10.5h-8.5Z" fill="#f7f2e8"/>
  <path d="M163.8 31.8h-8.7V25h25v6.8h-8.8V51h-7.5V31.8Zm21.7-6.8h13.8c3.8 0 6.7.9 8.8 2.8 2.1 1.9 3.1 4.4 3.1 7.5 0 2-.5 3.8-1.5 5.3s-2.4 2.7-4.2 3.5l6.9 6.9h-8.7l-5.8-6h-5V51h-7.4V25Zm13.1 13.9c1.7 0 3-.3 3.8-1 .9-.7 1.3-1.6 1.3-2.8 0-1.3-.4-2.2-1.3-2.9-.8-.7-2.1-1-3.8-1h-5.7v7.7h5.7Zm21-13.9h7.5v19.2H239V51h-19.4V25Z" fill="#e8b95b"/>
</svg>
