<svg xmlns="http://www.w3.org/2000/svg" viewBox="0 0 760 480" role="img" aria-labelledby="title desc">
  <title id="title">Sand, gravel, and aggregate supply</title>
  <desc id="desc">Aggregate piles for building projects and site material supply.</desc>
  <defs>
    <linearGradient id="bg" x1="0" x2="1" y1="0" y2="1">
      <stop offset="0" stop-color="#f4efe5"/>
      <stop offset="1" stop-color="#d7d7cf"/>
    </linearGradient>
    <linearGradient id="sand" x1="0" x2="0" y1="0" y2="1">
      <stop offset="0" stop-color="#d2aa62"/>
      <stop offset="1" stop-color="#8a6a35"/>
    </linearGradient>
    <linearGradient id="gravel" x1="0" x2="1">
      <stop offset="0" stop-color="#9d9a8f"/>
      <stop offset="1" stop-color="#545a50"/>
    </linearGradient>
  </defs>
  <rect width="760" height="480" fill="url(#bg)"/>
  <rect y="330" width="760" height="150" fill="#24352b"/>
  <path d="M46 342c86-152 224-154 314 0z" fill="url(#sand)" stroke="#6c5128" stroke-width="5"/>
  <path d="M284 348c95-146 242-148 352 0z" fill="url(#gravel)" stroke="#42483f" stroke-width="5"/>
  <path d="M436 156l130 192H306z" fill="#6f786e" opacity=".35"/>
  <g fill="#fff2cf" opacity=".44">
    <circle cx="136" cy="300" r="8"/>
    <circle cx="204" cy="252" r="7"/>
    <circle cx="250" cy="318" r="6"/>
    <circle cx="118" cy="340" r="5"/>
  </g>
  <g fill="#d2d1c8" opacity=".72">
    <circle cx="448" cy="286" r="8"/>
    <circle cx="514" cy="250" r="7"/>
    <circle cx="568" cy="318" r="6"/>
    <circle cx="382" cy="330" r="5"/>
    <circle cx="626" cy="342" r="7"/>
  </g>
</svg>
