<svg xmlns="http://www.w3.org/2000/svg" viewBox="0 0 760 480" role="img" aria-labelledby="title desc">
  <title id="title">Stacked construction timber</title>
  <desc id="desc">Trade timber lengths stacked in a builders merchant yard.</desc>
  <defs>
    <linearGradient id="sky" x1="0" x2="1" y1="0" y2="1">
      <stop offset="0" stop-color="#f5f2ea"/>
      <stop offset="1" stop-color="#d8d0bf"/>
    </linearGradient>
    <linearGradient id="wood" x1="0" x2="1">
      <stop offset="0" stop-color="#c89555"/>
      <stop offset="1" stop-color="#8d5d2f"/>
    </linearGradient>
  </defs>
  <rect width="760" height="480" fill="url(#sky)"/>
  <rect y="326" width="760" height="154" fill="#2d3d31"/>
  <g opacity=".22" fill="none" stroke="#fffaf0" stroke-width="12">
    <path d="M40 356h680M80 408h600"/>
  </g>
  <g transform="translate(92 114)">
    <g fill="url(#wood)" stroke="#5d3d22" stroke-width="5">
      <rect x="24" y="192" width="520" height="42" rx="6"/>
      <rect x="76" y="146" width="520" height="42" rx="6"/>
      <rect x="10" y="100" width="520" height="42" rx="6"/>
      <rect x="68" y="54" width="520" height="42" rx="6"/>
    </g>
    <g fill="#f4d59e" opacity=".72">
      <circle cx="52" cy="213" r="13"/>
      <circle cx="104" cy="121" r="12"/>
      <circle cx="116" cy="75" r="12"/>
    </g>
    <g stroke="#6e4726" stroke-width="3" opacity=".58">
      <path d="M124 74h430M64 120h390M128 166h430M78 212h390"/>
      <path d="M48 205c22 8 42 8 62 0M104 113c20 7 38 7 56 0"/>
    </g>
  </g>
</svg>
