<svg xmlns="http://www.w3.org/2000/svg" viewBox="0 0 760 480" role="img" aria-labelledby="title desc">
  <title id="title">Bagged cement supply</title>
  <desc id="desc">Cement bags stacked for construction and trade buyers.</desc>
  <defs>
    <linearGradient id="wall" x1="0" x2="1" y1="0" y2="1">
      <stop offset="0" stop-color="#f7f3eb"/>
      <stop offset="1" stop-color="#d4d1c8"/>
    </linearGradient>
  </defs>
  <rect width="760" height="480" fill="url(#wall)"/>
  <rect y="328" width="760" height="152" fill="#6b5529"/>
  <g transform="translate(108 96)">
    <g fill="#ede5d8" stroke="#877a68" stroke-width="5">
      <rect x="38" y="188" width="210" height="78" rx="18"/>
      <rect x="264" y="188" width="210" height="78" rx="18"/>
      <rect x="150" y="100" width="210" height="78" rx="18"/>
      <rect x="378" y="100" width="210" height="78" rx="18"/>
      <rect x="36" y="14" width="210" height="78" rx="18"/>
      <rect x="264" y="14" width="210" height="78" rx="18"/>
    </g>
    <g fill="#b84d2e">
      <rect x="80" y="218" width="126" height="18" rx="9"/>
      <rect x="306" y="218" width="126" height="18" rx="9"/>
      <rect x="192" y="130" width="126" height="18" rx="9"/>
      <rect x="420" y="130" width="126" height="18" rx="9"/>
      <rect x="78" y="44" width="126" height="18" rx="9"/>
      <rect x="306" y="44" width="126" height="18" rx="9"/>
    </g>
    <g fill="#26332a" font-family="Arial, Helvetica, sans-serif" font-size="28" font-weight="800">
      <text x="107" y="213">CEMENT</text>
      <text x="333" y="213">CEMENT</text>
      <text x="219" y="125">CEMENT</text>
      <text x="447" y="125">CEMENT</text>
      <text x="105" y="39">CEMENT</text>
      <text x="333" y="39">CEMENT</text>
    </g>
  </g>
</svg>
